<svg xmlns="http://www.w3.org/2000/svg" xml:space="preserve" width="371" height="255" style="clip-rule:evenodd;fill-rule:evenodd;stroke-linejoin:round;stroke-miterlimit:2;color:#e69132" viewBox="0 0 371 255"><path d="m0 25.7-10.7-13L0 0h3.9L-6.8 12.8 3.8 25.7z" style="fill:currentColor;fill-rule:nonzero" transform="translate(65 96.8)scale(6.1083)"/><path d="M0 .1v7.4h2.6V.1l.6-.2a3.3 3.3 0 0 0-1.9-6 3.3 3.3 0 0 0-1.8 6zM14 13h-25.5v-25.6h25.6z" style="fill:currentColor;fill-rule:nonzero" transform="translate(178.5 173.4)scale(6.1083)"/><path d="M0 12.8h-2.8a10 10 0 0 0-20 0h-2.8a12.8 12.8 0 0 1 25.6 0" style="fill:currentColor;fill-rule:nonzero" transform="translate(264.6)scale(6.1083)"/><path d="m0 25.7-10.7-13L0 0h3.9L-6.8 12.8 3.8 25.7z" style="fill:currentColor;fill-rule:nonzero" transform="matrix(-6.082 0 0 6.1083 307.2 96.8)"/></svg>